<svg width="21" height="22" viewBox="0 0 21 22" fill="none" xmlns="http://www.w3.org/2000/svg">
<path d="M10 19C5.59 19 2 15.41 2 11C2 6.59 5.59 3 10 3C14.41 3 18 6.59 18 11C18 15.41 14.41 19 10 19ZM10 1C8.68678 1 7.38642 1.25866 6.17317 1.7612C4.95991 2.26375 3.85752 3.00035 2.92893 3.92893C1.05357 5.8043 0 8.34784 0 11C0 13.6522 1.05357 16.1957 2.92893 18.0711C3.85752 18.9997 4.95991 19.7362 6.17317 20.2388C7.38642 20.7413 8.68678 21 10 21C12.6522 21 15.1957 19.9464 17.0711 18.0711C18.9464 16.1957 20 13.6522 20 11C20 9.68678 19.7413 8.38642 19.2388 7.17317C18.7362 5.95991 17.9997 4.85752 17.0711 3.92893C16.1425 3.00035 15.0401 2.26375 13.8268 1.7612C12.6136 1.25866 11.3132 1 10 1Z" fill="white"/>
<rect x="5" y="10" width="10" height="2" fill="white"/>
</svg>
